{
    "accessors": [
        {
            "bufferView": 12,
            "byteOffset": 0,
            "componentType": 5126,
            "count": 420,
            "max": [
                1.0,
                1.0,
                1.0
            ],
            "min": [
                1.0,
                1.0,
                1.0
            ],
            "name": "accessor_buffer_Torus.001_COLOR_0_0",
            "type": "VEC3"
        },
        {
            "bufferView": 4,
            "byteOffset": 0,
            "componentType": 5126,
            "count": 4,
            "max": [
                0.0,
                1.0,
                0.0
            ],
            "min": [
                0.0,
                1.0,
                0.0
            ],
            "name": "accessor_buffer_Plane.001_NORMAL_0",
            "type": "VEC3"
        },
        {
            "bufferView": 3,
            "byteOffset": 0,
            "componentType": 5126,
            "count": 4,
            "max": [
                1.0,
                0.0,
                1.0
            ],
            "min": [
                -1.0,
                0.0,
                -1.0
            ],
            "name": "accessor_buffer_Plane.001_POSITION_0",
            "type": "VEC3"
        },
        {
            "bufferView": 11,
            "byteOffset": 0,
            "componentType": 5126,
            "count": 420,
            "max": [
                0.904293954372406,
                0.999847412109375,
                0.8846095204353333
            ],
            "min": [
                -0.8767357468605042,
                -0.9998779296875,
                -0.8812524676322937
            ],
            "name": "accessor_buffer_Torus.001_NORMAL_0",
            "type": "VEC3"
        },
        {
            "bufferView": 7,
            "byteOffset": 0,
            "componentType": 5126,
            "count": 360,
            "max": [
                0.949999988079071,
                0.556018054485321,
                0.9447957873344421
            ],
            "min": [
                -0.949999988079071,
                -0.08667558431625366,
                -0.9447958469390869
            ],
            "name": "accessor_buffer_Torus.005_POSITION_0",
            "type": "VEC3"
        },
        {
            "bufferView": 13,
            "byteOffset": 0,
            "componentType": 5123,
            "count": 2520,
            "max": [
                419
            ],
            "min": [
                0
            ],
            "name": "accessor_buffer_Torus.001_0",
            "type": "SCALAR"
        },
        {
            "bufferView": 8,
            "byteOffset": 0,
            "componentType": 5126,
            "count": 360,
            "max": [
                0.999969482421875,
                0.999847412109375,
                0.9944761395454407
            ],
            "min": [
                -0.999969482421875,
                -0.999847412109375,
                -0.9944761395454407
            ],
            "name": "accessor_buffer_Torus.005_NORMAL_0",
            "type": "VEC3"
        },
        {
            "bufferView": 1,
            "byteOffset": 0,
            "componentType": 5126,
            "count": 224,
            "max": [
                0.9807853102684021,
                1.0,
                0.9807853698730469
            ],
            "min": [
                -0.9807853102684021,
                -1.0,
                -0.9807854294776917
            ],
            "name": "accessor_buffer_Cylinder.002_NORMAL_0",
            "type": "VEC3"
        },
        {
            "bufferView": 5,
            "byteOffset": 0,
            "componentType": 5126,
            "count": 4,
            "max": [
                0.5633238554000854,
                0.9999249557222356
            ],
            "min": [
                7.504427776439115e-05,
                7.492303848266602e-05
            ],
            "name": "accessor_buffer_Plane.001_TEXCOORD_0_0",
            "type": "VEC2"
        },
        {
            "bufferView": 2,
            "byteOffset": 0,
            "componentType": 5123,
            "count": 372,
            "max": [
                223
            ],
            "min": [
                0
            ],
            "name": "accessor_buffer_Cylinder.002_0",
            "type": "SCALAR"
        },
        {
            "bufferView": 6,
            "byteOffset": 0,
            "componentType": 5123,
            "count": 6,
            "max": [
                3
            ],
            "min": [
                0
            ],
            "name": "accessor_buffer_Plane.001_0",
            "type": "SCALAR"
        },
        {
            "bufferView": 9,
            "byteOffset": 0,
            "componentType": 5123,
            "count": 2160,
            "max": [
                359
            ],
            "min": [
                0
            ],
            "name": "accessor_buffer_Torus.005_0",
            "type": "SCALAR"
        },
        {
            "bufferView": 10,
            "byteOffset": 0,
            "componentType": 5126,
            "count": 420,
            "max": [
                0.949999988079071,
                0.6373471617698669,
                0.9447957873344421
            ],
            "min": [
                -0.9477201700210571,
                0.18356072902679443,
                -0.9434277415275574
            ],
            "name": "accessor_buffer_Torus.001_POSITION_0",
            "type": "VEC3"
        },
        {
            "bufferView": 0,
            "byteOffset": 0,
            "componentType": 5126,
            "count": 224,
            "max": [
                3.5776853561401367,
                0.24647682905197144,
                3.577685594558716
            ],
            "min": [
                -3.5776848793029785,
                -0.24647682905197144,
                -3.577685594558716
            ],
            "name": "accessor_buffer_Cylinder.002_POSITION_0",
            "type": "VEC3"
        }
    ],
    "asset": {
        "copyright": "",
        "generator": "blendergltf v1.2.0",
        "version": "2.0"
    },
    "bufferViews": [
        {
            "buffer": 0,
            "byteLength": 2688,
            "byteOffset": 0,
            "byteStride": 12,
            "name": "bufferView_buffer_Cylinder.002_POSITION_0",
            "target": 34962
        },
        {
            "buffer": 0,
            "byteLength": 2688,
            "byteOffset": 2688,
            "byteStride": 12,
            "name": "bufferView_buffer_Cylinder.002_NORMAL_0",
            "target": 34962
        },
        {
            "buffer": 0,
            "byteLength": 748,
            "byteOffset": 5376,
            "name": "bufferView_buffer_Cylinder.002_0",
            "target": 34963
        },
        {
            "buffer": 0,
            "byteLength": 48,
            "byteOffset": 6124,
            "byteStride": 12,
            "name": "bufferView_buffer_Plane.001_POSITION_0",
            "target": 34962
        },
        {
            "buffer": 0,
            "byteLength": 48,
            "byteOffset": 6172,
            "byteStride": 12,
            "name": "bufferView_buffer_Plane.001_NORMAL_0",
            "target": 34962
        },
        {
            "buffer": 0,
            "byteLength": 32,
            "byteOffset": 6220,
            "byteStride": 8,
            "name": "bufferView_buffer_Plane.001_TEXCOORD_0_0",
            "target": 34962
        },
        {
            "buffer": 0,
            "byteLength": 16,
            "byteOffset": 6252,
            "name": "bufferView_buffer_Plane.001_0",
            "target": 34963
        },
        {
            "buffer": 0,
            "byteLength": 4320,
            "byteOffset": 6268,
            "byteStride": 12,
            "name": "bufferView_buffer_Torus.005_POSITION_0",
            "target": 34962
        },
        {
            "buffer": 0,
            "byteLength": 4320,
            "byteOffset": 10588,
            "byteStride": 12,
            "name": "bufferView_buffer_Torus.005_NORMAL_0",
            "target": 34962
        },
        {
            "buffer": 0,
            "byteLength": 4324,
            "byteOffset": 14908,
            "name": "bufferView_buffer_Torus.005_0",
            "target": 34963
        },
        {
            "buffer": 0,
            "byteLength": 5040,
            "byteOffset": 19232,
            "byteStride": 12,
            "name": "bufferView_buffer_Torus.001_POSITION_0",
            "target": 34962
        },
        {
            "buffer": 0,
            "byteLength": 5040,
            "byteOffset": 24272,
            "byteStride": 12,
            "name": "bufferView_buffer_Torus.001_NORMAL_0",
            "target": 34962
        },
        {
            "buffer": 0,
            "byteLength": 5040,
            "byteOffset": 29312,
            "byteStride": 12,
            "name": "bufferView_buffer_Torus.001_COLOR_0_0",
            "target": 34962
        },
        {
            "buffer": 0,
            "byteLength": 5044,
            "byteOffset": 34352,
            "name": "bufferView_buffer_Torus.001_0",
            "target": 34963
        }
    ],
    "buffers": [
        {
            "byteLength": 39396,
            "name": "buffer_mesa",
            "uri": "buffer_mesa.bin"
        }
    ],
    "cameras": [
        {
            "name": "Camera",
            "perspective": {
                "aspectRatio": 1.703595982340029,
                "yfov": 0.5033799409866333,
                "zfar": 100.0,
                "znear": 0.10000000149011612
            },
            "type": "perspective"
        }
    ],
    "materials": [
        {
            "alphaMode": "OPAQUE",
            "doubleSided": false,
            "emissiveFactor": [
                0.0,
                0.0,
                0.0
            ],
            "name": "ceramica",
            "pbrMetallicRoughness": {
                "baseColorFactor": [
                    0.64000004529953,
                    0.64000004529953,
                    0.64000004529953,
                    1.0
                ],
                "metallicFactor": 0.0,
                "roughnessFactor": 1.0
            }
        },
        {
            "alphaMode": "OPAQUE",
            "doubleSided": false,
            "emissiveFactor": [
                0.0,
                0.0,
                0.0
            ],
            "name": "dona",
            "pbrMetallicRoughness": {
                "baseColorFactor": [
                    0.64000004529953,
                    0.5950424671173096,
                    0.17249301075935364,
                    1.0
                ],
                "metallicFactor": 0.0,
                "roughnessFactor": 1.0
            }
        },
        {
            "alphaMode": "OPAQUE",
            "doubleSided": false,
            "emissiveFactor": [
                0.0,
                0.0,
                0.0
            ],
            "name": "Material",
            "pbrMetallicRoughness": {
                "baseColorFactor": [
                    0.64000004529953,
                    0.3580244183540344,
                    0.5900649428367615,
                    1.0
                ],
                "metallicFactor": 0.0,
                "roughnessFactor": 1.0
            }
        },
        {
            "alphaMode": "OPAQUE",
            "doubleSided": false,
            "emissiveFactor": [
                0.0,
                0.0,
                0.0
            ],
            "name": "Material.010",
            "pbrMetallicRoughness": {
                "baseColorFactor": [
                    0.12919026613235474,
                    0.06690323352813721,
                    0.012282718904316425,
                    1.0
                ],
                "metallicFactor": 0.0,
                "roughnessFactor": 1.0
            }
        }
    ],
    "meshes": [
        {
            "name": "Cylinder.002",
            "primitives": [
                {
                    "attributes": {
                        "NORMAL": 7,
                        "POSITION": 13
                    },
                    "indices": 9,
                    "material": 0,
                    "mode": 4
                }
            ]
        },
        {
            "name": "Plane.001",
            "primitives": [
                {
                    "attributes": {
                        "NORMAL": 1,
                        "POSITION": 2,
                        "TEXCOORD_0": 8
                    },
                    "indices": 10,
                    "material": 3,
                    "mode": 4
                }
            ]
        },
        {
            "name": "Torus.005",
            "primitives": [
                {
                    "attributes": {
                        "NORMAL": 6,
                        "POSITION": 4
                    },
                    "indices": 11,
                    "material": 1,
                    "mode": 4
                }
            ]
        },
        {
            "name": "Torus.001",
            "primitives": [
                {
                    "attributes": {
                        "COLOR_0": 0,
                        "NORMAL": 3,
                        "POSITION": 12
                    },
                    "indices": 5,
                    "material": 2,
                    "mode": 4
                }
            ]
        }
    ],
    "nodes": [
        {
            "camera": 0,
            "name": "Camera",
            "rotation": [
                -0.37436309456825256,
                0.7913640141487122,
                -0.04711071401834488,
                0.48101553320884705
            ],
            "scale": [
                1.0,
                1.0,
                1.0
            ],
            "translation": [
                9.22053050994873,
                3.9658188819885254,
                -1.6998791694641113
            ]
        },
        {
            "name": "Lamp",
            "rotation": [
                -0.34203386306762695,
                -0.5232755541801453,
                -0.2841663062572479,
                0.7269423007965088
            ],
            "scale": [
                1.0,
                1.0,
                0.9999999403953552
            ],
            "translation": [
                -17.791763305664062,
                3.007012367248535,
                -6.689498424530029
            ]
        },
        {
            "mesh": 1,
            "name": "mesa",
            "rotation": [
                0.0,
                0.0,
                0.0,
                1.0
            ],
            "scale": [
                7.888104438781738,
                7.888104438781738,
                7.888104438781738
            ],
            "translation": [
                0.2843618392944336,
                0.06843441724777222,
                -0.3350045680999756
            ]
        },
        {
            "mesh": 0,
            "name": "plato",
            "rotation": [
                0.0,
                0.0,
                0.0,
                1.0
            ],
            "scale": [
                0.6532689332962036,
                0.6532689332962036,
                0.6532689332962036
            ],
            "translation": [
                0.0,
                0.20410984754562378,
                0.0
            ]
        },
        {
            "name": "reference esperial",
            "rotation": [
                0.1601056158542633,
                0.5701541900634766,
                0.6830655932426453,
                0.4274480640888214
            ],
            "scale": [
                1.0,
                1.0,
                1.0
            ],
            "translation": [
                -4.122894287109375,
                13.628789901733398,
                -1.671609878540039
            ]
        },
        {
            "name": "Sun",
            "rotation": [
                0.0,
                0.7071068286895752,
                0.7071068286895752,
                0.0
            ],
            "scale": [
                1.0,
                1.0,
                1.0
            ],
            "translation": [
                -1.886340618133545,
                10.775296211242676,
                -3.746609926223755
            ]
        },
        {
            "mesh": 3,
            "name": "Torus.002",
            "rotation": [
                0.0,
                0.0,
                0.0,
                1.0
            ],
            "scale": [
                1.0,
                1.0,
                1.0
            ],
            "translation": [
                0.0,
                0.20410984754562378,
                0.0
            ]
        },
        {
            "mesh": 2,
            "name": "Torus.005",
            "rotation": [
                0.0,
                0.0,
                0.0,
                1.0
            ],
            "scale": [
                0.9678702354431152,
                0.9678702354431152,
                0.9678702354431152
            ],
            "translation": [
                0.0,
                0.20410984754562378,
                0.0
            ]
        }
    ],
    "scene": 0,
    "scenes": [
        {
            "extras": {
                "active_camera": 0,
                "background_color": [
                    0.05087608844041824,
                    0.05087608844041824,
                    0.05087608844041824
                ],
                "frames_per_second": 24
            },
            "name": "Scene",
            "nodes": [
                4,
                5,
                3,
                2,
                6,
                7,
                1,
                0
            ]
        }
    ]
}
